# xmcd
#
# Track frame offsets: 
#        150
#        16799
#        36090
#        68507
#        92515
#        113917
#        134675
#        159505
#        184905
#        197847
#        219722
#        238730
#
# Disc length: 3376 seconds
#
# Revision: 0
# Processed by: cddbd v1.5.2PL0 Copyright (c) Steve Scherf et al.
# Submitted via: ExactAudioCopy v0.95b3
#
DISCID=a40d2e0c
DTITLE=NiteCry - Back In Town
DYEAR=2005
DGENRE=Blues
TTITLE0=Sinking Like A Stone
TTITLE1=Midnight In Memphis
TTITLE2=I Want To Know
TTITLE3=Back In Town
TTITLE4=Blues In The Night
TTITLE5=Angels Can Fly
TTITLE6=Road To Ruin
TTITLE7=Lonely Country Road
TTITLE8=Stratoblaster
TTITLE9=Blues Cut Me Loose
TTITLE10=Make It Right
TTITLE11=E Ticket Ride
EXTD=
EXTT0=
EXTT1=
EXTT2=
EXTT3=
EXTT4=
EXTT5=
EXTT6=
EXTT7=
EXTT8=
EXTT9=
EXTT10=
EXTT11=
PLAYORDER=
